<?xml version="1.0" standalone="no"?>
<svg xmlns="http://www.w3.org/2000/svg" viewBox="0 0 124.769 29" width="124.769" height="29"><g fill="#ff8686" color="#ff8686" transform="translate(0, 0) scale(0.6041667)"><svg width="29.0" height="48.0" x="0.0" y="0.0" viewBox="0 0 29 48"><path fill="currentColor" fill-rule="evenodd" d="M24 28.8l4.8 4.8L14.4 48 0 33.6l4.8-4.8 9.6 9.6 9.6-9.6zm-9.6-14.4L24 24l-9.6 9.6L4.8 24l9.6-9.6zm0-14.4l14.4 14.4-4.8 4.8-9.6-9.6-9.6 9.6L0 14.4 14.4 0z"></path></svg></g><line x1="29.521" y1="1" x2="29.521" y2="28" stroke="#fe0b01" stroke-linecap="round"></line><path fill="#fe0b01" fill-rule="nonzero" d="M4.73 6.91Q4.30 6.91 4.02 6.71Q3.74 6.50 3.74 6.12L3.74 6.12Q3.74 5.64 4.32 5.26Q4.90 4.87 5.50 4.87L5.50 4.87Q6.29 4.87 6.29 5.62L6.29 5.62Q6.29 6.07 5.80 6.49Q5.30 6.91 4.73 6.91L4.73 6.91ZM1.85 17.90Q0.96 17.90 0.48 17.34Q0 16.78 0 15.89L0 15.89Q0 14.95 0.54 13.30Q1.08 11.64 1.88 10.39Q2.69 9.14 3.46 9.14L3.46 9.14Q3.67 9.14 3.83 9.29Q3.98 9.43 3.98 9.67L3.98 9.67Q3.98 10.01 3.22 11.28L3.22 11.28Q2.42 12.60 1.96 13.64Q1.49 14.69 1.49 15.62L1.49 15.62Q1.49 16.46 1.76 16.76Q2.04 17.06 2.66 17.06L2.66 17.06Q4.54 17.06 6.36 13.39L6.36 13.39L6.58 13.63Q5.90 15.65 4.60 16.78Q3.29 17.90 1.85 17.90L1.85 17.90ZM7.56 18.05Q6.58 18.05 6.12 17.45Q5.66 16.85 5.66 15.86L5.66 15.86Q5.66 14.88 6.07 13.80Q6.48 12.72 7.13 12Q7.78 11.28 8.42 11.28L8.42 11.28Q8.64 11.28 8.93 11.40L8.93 11.40Q8.64 11.64 8.23 12.46Q7.82 13.27 7.52 14.20Q7.22 15.12 7.22 15.70L7.22 15.70Q7.22 17.06 8.09 17.06L8.09 17.06Q8.59 17.06 9.29 16.54Q9.98 16.01 10.66 15.14L10.66 15.14Q9.98 14.59 9.61 13.70Q9.24 12.82 9.24 11.86L9.24 11.86Q9.24 10.61 9.88 9.72Q10.51 8.83 11.59 8.83L11.59 8.83Q12.50 8.83 12.88 9.32Q13.25 9.82 13.25 10.68L13.25 10.68Q13.25 11.59 12.80 12.73Q12.36 13.87 11.64 14.95L11.64 14.95Q12.07 15.19 12.55 15.19L12.55 15.19Q13.25 15.19 13.99 14.77Q14.74 14.35 15.12 13.46L15.12 13.46L15.41 13.70Q14.95 14.76 14.11 15.26Q13.27 15.77 12.38 15.77L12.38 15.77Q11.74 15.77 11.23 15.53L11.23 15.53Q10.37 16.66 9.40 17.35Q8.42 18.05 7.56 18.05L7.56 18.05ZM11.09 14.52Q11.71 13.58 12.10 12.61Q12.48 11.64 12.48 10.82L12.48 10.82Q12.48 10.15 12.28 9.82Q12.07 9.48 11.76 9.48L11.76 9.48Q11.42 9.48 11.08 9.80Q10.73 10.13 10.50 10.69Q10.27 11.26 10.27 11.93L10.27 11.93Q10.27 12.67 10.48 13.36Q10.68 14.04 11.09 14.52L11.09 14.52ZM16.70 18.38Q14.57 18.38 14.57 16.01L14.57 16.01Q14.57 14.98 14.94 13.45Q15.31 11.93 15.96 10.22L15.96 10.22Q15.38 10.13 15.10 10.03L15.10 10.03L15.10 9.60Q15.96 9.70 16.15 9.70L16.15 9.70Q17.21 6.96 18.42 4.96Q19.63 2.95 20.33 2.95L20.33 2.95Q20.52 2.95 20.68 3.10Q20.83 3.24 20.83 3.48L20.83 3.48Q20.83 3.79 20.53 4.39Q20.23 4.99 19.51 6.24L19.51 6.24Q19.39 6.48 18.77 7.57Q18.14 8.66 17.64 9.77L17.64 9.77L18.53 9.77Q20.52 9.77 21.96 9.62L21.96 9.62L21.96 10.06Q19.34 10.34 17.74 10.34L17.74 10.34L17.38 10.34Q16.06 13.37 16.06 15.58L16.06 15.58Q16.06 16.61 16.37 17.05Q16.68 17.50 17.40 17.50L17.40 17.50Q18.62 17.50 19.82 16.40Q21.02 15.31 21.96 13.39L21.96 13.39L22.27 13.63Q21.38 15.72 19.87 17.05Q18.36 18.38 16.70 18.38L16.70 18.38ZM25.42 19.37Q24.55 19.37 23.92 19.14Q23.28 18.91 22.85 18.29L22.85 18.29Q23.47 15.29 24.85 10.84Q26.23 6.38 27 4.37L27 4.37Q27.29 3.60 27.77 2.86Q28.25 2.11 28.87 2.11L28.87 2.11Q29.21 2.11 29.54 2.35L29.54 2.35Q28.10 5.69 26.63 10.37Q25.15 15.05 24.36 18.65L24.36 18.65Q24.94 18.74 25.39 18.74L25.39 18.74Q27.86 18.74 30.12 16.90Q32.38 15.05 33.77 12.16Q35.16 9.26 35.16 6.31L35.16 6.31Q35.16 3.50 33.84 2.08Q32.52 0.65 30.24 0.65L30.24 0.65Q28.70 0.65 27.44 1.26Q26.18 1.87 25.46 2.95Q24.74 4.03 24.74 5.33L24.74 5.33Q24.74 5.86 24.86 6.22L24.86 6.22Q24.12 6.22 23.77 5.84Q23.42 5.47 23.42 4.87L23.42 4.87Q23.42 3.74 24.46 2.62Q25.49 1.49 27.23 0.74Q28.97 0 30.96 0L30.96 0Q34.01 0 35.47 1.80Q36.94 3.60 36.94 6.58L36.94 6.58Q36.94 9.94 35.24 12.89Q33.55 15.84 30.88 17.60Q28.20 19.37 25.42 19.37L25.42 19.37ZM39.60 18.34Q38.18 18.34 37.43 17.56Q36.67 16.78 36.67 15.55L36.67 15.55Q36.67 14.14 37.61 12.50Q38.54 10.87 39.97 9.76Q41.40 8.64 42.77 8.64L42.77 8.64Q44.26 8.64 44.26 10.10L44.26 10.10Q44.26 11.28 43.37 12.30Q42.48 13.32 41.09 13.97Q39.70 14.62 38.30 14.76L38.30 14.76Q38.21 15.17 38.21 15.62L38.21 15.62Q38.21 16.49 38.64 17.06Q39.07 17.64 40.10 17.64L40.10 17.64Q41.57 17.64 43.06 16.42Q44.54 15.19 45.48 13.39L45.48 13.39L45.77 13.61Q44.81 15.74 43.10 17.04Q41.40 18.34 39.60 18.34L39.60 18.34ZM38.42 14.30Q39.43 13.94 40.54 13.30Q41.64 12.65 42.42 11.77Q43.20 10.90 43.20 9.94L43.20 9.94Q43.20 9.65 43.09 9.52Q42.98 9.38 42.70 9.38L42.70 9.38Q41.95 9.38 41.08 10.13Q40.20 10.87 39.47 12.02Q38.74 13.18 38.42 14.30L38.42 14.30ZM46.56 18.22Q45.84 18.22 45.54 17.53Q45.24 16.85 45.24 15.58L45.24 15.58Q45.24 15.12 45.38 12.43L45.38 12.43Q45.43 11.71 45.55 11.51Q45.67 11.30 46.15 11.30L46.15 11.30Q46.56 11.30 46.67 11.46Q46.78 11.62 46.78 12.07L46.78 12.07Q46.78 12.55 46.68 13.85L46.68 13.85Q46.56 15 46.56 15.94L46.56 15.94Q46.56 16.66 46.68 16.97Q46.80 17.28 47.11 17.28L47.11 17.28Q47.90 17.28 49.03 15.66Q50.16 14.04 51.07 12.02L51.07 12.02Q51.12 10.51 51.40 9.91Q51.67 9.31 52.18 9.31L52.18 9.31Q52.58 9.31 52.81 9.61Q53.04 9.91 53.04 10.22L53.04 10.22Q53.04 10.46 52.80 10.90L52.80 10.90Q52.51 11.45 52.36 11.99Q52.20 12.53 52.20 13.44L52.20 13.44Q52.20 14.23 52.43 14.75Q52.66 15.26 53.33 15.26L53.33 15.26Q53.86 15.26 54.31 14.86Q54.77 14.45 55.22 13.49L55.22 13.49L55.54 13.73Q54.67 15.74 53.16 15.74L53.16 15.74Q52.34 15.74 51.83 15.16Q51.31 14.57 51.14 13.42L51.14 13.42Q50.16 15.38 48.90 16.80Q47.64 18.22 46.56 18.22L46.56 18.22ZM59.38 6.91Q58.94 6.91 58.67 6.71Q58.39 6.50 58.39 6.12L58.39 6.12Q58.39 5.64 58.97 5.26Q59.54 4.87 60.14 4.87L60.14 4.87Q60.94 4.87 60.94 5.62L60.94 5.62Q60.94 6.07 60.44 6.49Q59.95 6.91 59.38 6.91L59.38 6.91ZM56.50 17.90Q55.61 17.90 55.13 17.34Q54.65 16.78 54.65 15.89L54.65 15.89Q54.65 14.95 55.19 13.30Q55.73 11.64 56.53 10.39Q57.34 9.14 58.10 9.14L58.10 9.14Q58.32 9.14 58.48 9.29Q58.63 9.43 58.63 9.67L58.63 9.67Q58.63 10.01 57.86 11.28L57.86 11.28Q57.07 12.60 56.60 13.64Q56.14 14.69 56.14 15.62L56.14 15.62Q56.14 16.46 56.41 16.76Q56.69 17.06 57.31 17.06L57.31 17.06Q59.18 17.06 61.01 13.39L61.01 13.39L61.22 13.63Q60.55 15.65 59.24 16.78Q57.94 17.90 56.50 17.90L56.50 17.90ZM63.12 18.62Q61.92 18.62 61.18 17.83Q60.43 17.04 60.43 15.55L60.43 15.55Q60.43 13.99 61.22 12.50Q62.02 11.02 63.25 10.09Q64.49 9.17 65.69 9.17L65.69 9.17Q66.60 9.17 67.00 9.68Q67.39 10.20 67.39 10.94L67.39 10.94Q67.39 11.66 67.07 12.18Q66.74 12.70 66.19 12.70L66.19 12.70Q65.78 12.70 65.50 12.34L65.50 12.34Q65.86 12.17 66.12 11.58Q66.38 10.99 66.38 10.44L66.38 10.44Q66.38 10.13 66.26 9.98Q66.14 9.84 65.86 9.84L65.86 9.84Q65.04 9.84 64.12 10.81Q63.19 11.78 62.56 13.18Q61.92 14.57 61.92 15.72L61.92 15.72Q61.92 16.58 62.33 17.15Q62.74 17.71 63.67 17.71L63.67 17.71Q65.14 17.71 66.56 16.51Q67.99 15.31 68.76 13.37L68.76 13.37L69.07 13.61Q68.52 15.05 67.56 16.19Q66.60 17.33 65.44 17.98Q64.27 18.62 63.12 18.62L63.12 18.62ZM70.90 18.34Q69.48 18.34 68.72 17.56Q67.97 16.78 67.97 15.55L67.97 15.55Q67.97 14.14 68.90 12.50Q69.84 10.87 71.27 9.76Q72.70 8.64 74.06 8.64L74.06 8.64Q75.55 8.64 75.55 10.10L75.55 10.10Q75.55 11.28 74.66 12.30Q73.78 13.32 72.38 13.97Q70.99 14.62 69.60 14.76L69.60 14.76Q69.50 15.17 69.50 15.62L69.50 15.62Q69.50 16.49 69.94 17.06Q70.37 17.64 71.40 17.64L71.40 17.64Q72.86 17.64 74.35 16.42Q75.84 15.19 76.78 13.39L76.78 13.39L77.06 13.61Q76.10 15.74 74.40 17.04Q72.70 18.34 70.90 18.34L70.90 18.34ZM69.72 14.30Q70.73 13.94 71.83 13.30Q72.94 12.65 73.72 11.77Q74.50 10.90 74.50 9.94L74.50 9.94Q74.50 9.65 74.39 9.52Q74.28 9.38 73.99 9.38L73.99 9.38Q73.25 9.38 72.37 10.13Q71.50 10.87 70.76 12.02Q70.03 13.18 69.72 14.30L69.72 14.30ZM78.82 18.50Q77.26 18.50 76.54 17.57Q75.82 16.63 75.82 15.36L75.82 15.36Q75.82 14.40 76.15 14.00Q76.49 13.61 76.88 13.44Q77.28 13.27 77.35 13.20L77.35 13.20Q78.89 11.52 79.73 9.72L79.73 9.72L79.73 9.43Q79.73 8.62 80.00 8.21Q80.28 7.80 80.66 7.80L80.66 7.80Q80.86 7.80 80.95 7.88Q81.05 7.97 81.05 8.11L81.05 8.11Q81.05 8.21 80.98 8.51Q80.90 8.81 80.90 9.17L80.90 9.17Q80.90 9.65 81.04 10.19Q81.17 10.73 81.46 11.59L81.46 11.59Q81.79 12.62 81.97 13.39Q82.15 14.16 82.15 14.95L82.15 14.95Q82.15 15.58 82.01 16.13L82.01 16.13Q82.87 15.98 83.62 15.35Q84.36 14.71 85.03 13.42L85.03 13.42L85.25 13.66Q84.82 14.90 83.93 15.62Q83.04 16.34 81.89 16.51L81.89 16.51Q81.53 17.50 80.71 18Q79.90 18.50 78.82 18.50L78.82 18.50ZM80.50 16.10Q80.59 15.48 80.59 14.98L80.59 14.98Q80.59 14.26 80.47 13.54Q80.35 12.82 80.11 11.88L80.11 11.88Q79.90 10.92 79.85 10.63L79.85 10.63Q78.62 12.65 77.52 13.75L77.52 13.75Q77.90 14.59 78.68 15.24Q79.46 15.89 80.50 16.10L80.50 16.10ZM78.86 17.66Q79.97 17.66 80.38 16.49L80.38 16.49Q79.42 16.30 78.62 15.73Q77.83 15.17 77.42 14.50L77.42 14.50Q76.90 14.52 76.90 15.34L76.90 15.34Q76.90 16.25 77.44 16.96Q77.98 17.66 78.86 17.66L78.86 17.66Z" transform="translate(39.521, 5.86)"></path></svg>